<svg id="Layer_1" data-name="Layer 1" xmlns="http://www.w3.org/2000/svg" viewBox="0 0 98.95 97.74"><defs><style>.cls-1{fill:#fff;}.cls-1,.cls-2,.cls-3{fill-rule:evenodd;}.cls-2{fill:#253b7d;}.cls-3{fill:#e32326;}.cls-4{fill:#1c82c5;}.cls-5{fill:#e61b48;}.cls-6{fill:#089c49;}.cls-7{fill:#f5b01b;}.cls-8{fill:#06060a;}</style></defs><path class="cls-1" d="M99.47,45.24A26.59,26.59,0,0,0,75.06,18.72a26.62,26.62,0,0,0-50.12,0A26.61,26.61,0,0,0,10.08,65.66,26.62,26.62,0,0,0,50,94.76a26.63,26.63,0,0,0,39.93-29.1,26.57,26.57,0,0,0,9.54-20.42Z" transform="translate(-0.53 -1.07)"/><path class="cls-2" d="M50.36,27.16A12.32,12.32,0,1,0,62.69,39.47,12.31,12.31,0,0,0,50.36,27.16Zm0,18.25a5.94,5.94,0,1,1,6-5.94,5.93,5.93,0,0,1-6,5.94Z" transform="translate(-0.53 -1.07)"/><path class="cls-2" d="M99.47,45.24A26.59,26.59,0,0,0,75.06,18.72a26.62,26.62,0,0,0-50.12,0A26.61,26.61,0,0,0,10.08,65.66,26.62,26.62,0,0,0,50,94.76a26.63,26.63,0,0,0,39.93-29.1,26.57,26.57,0,0,0,9.54-20.42ZM85.27,63.19a22.18,22.18,0,0,1-34.8,25.65A22.19,22.19,0,0,1,15.52,63.53a22.18,22.18,0,0,1,11.75-41c.46,0,.91,0,1.36.05a22.18,22.18,0,0,1,43,0c.45,0,.9-.05,1.36-.05A22.18,22.18,0,0,1,85.27,63.19Z" transform="translate(-0.53 -1.07)"/><path class="cls-3" d="M92.18,45.3A20.31,20.31,0,0,0,71.87,25c-.64,0-1.29,0-1.92.09a20.31,20.31,0,0,0-39.64,0c-.62-.05-1.26-.09-1.9-.09A20.31,20.31,0,0,0,18.24,62.87,20.32,20.32,0,0,0,50.46,86.05,20.31,20.31,0,0,0,82.54,62.57,20.27,20.27,0,0,0,92.18,45.3Zm-13.08,16A17.84,17.84,0,0,1,50.38,82.37,17.84,17.84,0,0,1,21.5,61.53a17.84,17.84,0,0,1,7-34.25,18.54,18.54,0,0,1,4.1.47A17.83,17.83,0,0,1,68,27.64a17.48,17.48,0,0,1,3.56-.36,17.84,17.84,0,0,1,7.51,34Z" transform="translate(-0.53 -1.07)"/><polygon class="cls-1" points="48.37 31.62 51.46 31.62 49.99 26.91 48.37 31.62"/><polygon class="cls-1" points="45.17 33.27 47.85 31.72 44.21 28.36 45.17 33.27"/><polygon class="cls-1" points="43.23 36.29 44.78 33.6 39.95 32.52 43.23 36.29"/><polygon class="cls-1" points="43.06 39.88 43.06 36.78 38.34 38.25 43.06 39.88"/><polygon class="cls-1" points="44.7 43.07 43.16 40.39 39.81 44.02 44.7 43.07"/><polygon class="cls-1" points="47.72 45.01 45.05 43.47 43.96 48.29 47.72 45.01"/><polygon class="cls-1" points="51.31 45.19 48.21 45.19 49.69 49.9 51.31 45.19"/><polygon class="cls-1" points="54.51 43.54 51.82 45.09 55.47 48.44 54.51 43.54"/><polygon class="cls-1" points="56.45 40.51 54.9 43.2 59.73 44.28 56.45 40.51"/><polygon class="cls-1" points="56.62 36.93 56.62 40.03 61.34 38.55 56.62 36.93"/><polygon class="cls-1" points="54.98 33.74 56.53 36.42 59.88 32.78 54.98 33.74"/><polygon class="cls-1" points="51.95 31.79 54.64 33.34 55.72 28.52 51.95 31.79"/><path class="cls-4" d="M41.55,63.92a7.85,7.85,0,1,0-7.85,7.85c.24,0,.46,0,.68,0,0-.21,0-.41,0-.62s0-.47,0-.69c-.22,0-.44,0-.68,0a6.52,6.52,0,1,1,2-.32,6.27,6.27,0,0,0-.08,1c0,.13,0,.27,0,.39a7.83,7.83,0,0,0,5.88-7.59Z" transform="translate(-0.53 -1.07)"/><path class="cls-5" d="M75.57,63.92a7.85,7.85,0,0,1-15.67.69,6.25,6.25,0,0,1,1.35.29,6.54,6.54,0,1,0-.06-1.39,7.89,7.89,0,0,0-1.29-.21,7.85,7.85,0,0,1,15.67.62Z" transform="translate(-0.53 -1.07)"/><path class="cls-6" d="M65.75,71.51a6.55,6.55,0,1,1-8.57-6.61,6.37,6.37,0,0,0,.07-1c0-.14,0-.27,0-.41A7.86,7.86,0,1,0,67,71.74a6.69,6.69,0,0,1-1.29-.23Zm-6.54-6.93a6.52,6.52,0,0,1,6.47,5.56,6.85,6.85,0,0,0,1.36.29,7.86,7.86,0,0,0-7.83-7.16c-.22,0-.45,0-.67,0,0,.2,0,.41,0,.62s0,.47,0,.69a5.16,5.16,0,0,1,.68,0Z" transform="translate(-0.53 -1.07)"/><path class="cls-7" d="M50,71.74a7.85,7.85,0,1,1-9.8-8.23c0,.14,0,.27,0,.41a6.37,6.37,0,0,1-.07,1,6.54,6.54,0,1,0,8.57,6.62,7.72,7.72,0,0,0,1.29.22Zm-8.51-7.13c0-.22,0-.46,0-.69s0-.42,0-.62c.22,0,.45,0,.68,0A7.85,7.85,0,0,1,50,70.43a6.61,6.61,0,0,1-1.35-.29,6.55,6.55,0,0,0-6.47-5.56,5.31,5.31,0,0,0-.69,0Z" transform="translate(-0.53 -1.07)"/><path class="cls-8" d="M50.71,70.46a6.54,6.54,0,0,1-6.47-5.56,6,6,0,0,0-1.35-.29,7.85,7.85,0,0,0,7.82,7.16c.23,0,.46,0,.68,0,0-.21,0-.41,0-.62s0-.47,0-.69c-.23,0-.45,0-.69,0Zm0-14.39a7.85,7.85,0,0,0-7.82,7.23,7.89,7.89,0,0,1,1.29.21,6.54,6.54,0,1,1,8.57,6.63,6.37,6.37,0,0,0-.08,1c0,.14,0,.27,0,.39a7.85,7.85,0,0,0-2-15.44Z" transform="translate(-0.53 -1.07)"/></svg>
