<svg id="Layer_1" data-name="Layer 1" xmlns="http://www.w3.org/2000/svg" viewBox="0 0 299.29 295.63"><defs><style>.cls-1{fill:#fff;}.cls-1,.cls-2,.cls-3{fill-rule:evenodd;}.cls-2{fill:#253b7d;}.cls-3{fill:#e32326;}.cls-4{fill:#1c82c5;}.cls-5{fill:#e61b48;}.cls-6{fill:#089c49;}.cls-7{fill:#f5b01b;}.cls-8{fill:#06060a;}</style></defs><path class="cls-1" d="M352.55,136.29a80.49,80.49,0,0,0-73.84-80.24,80.51,80.51,0,0,0-151.6,0,80.48,80.48,0,0,0-45,142,80.54,80.54,0,0,0,120.76,88,80.55,80.55,0,0,0,120.76-88,80.33,80.33,0,0,0,28.88-61.74Z" transform="translate(-53.26 -2.68)"/><path class="cls-2" d="M204,81.58a37.26,37.26,0,1,0,37.28,37.25A37.27,37.27,0,0,0,204,81.58Zm0,55.22a18,18,0,1,1,18-18,18,18,0,0,1-18,18Z" transform="translate(-53.26 -2.68)"/><path class="cls-2" d="M352.55,136.29a80.49,80.49,0,0,0-73.84-80.24,80.51,80.51,0,0,0-151.6,0,80.48,80.48,0,0,0-45,142,80.54,80.54,0,0,0,120.76,88,80.55,80.55,0,0,0,120.76-88,80.33,80.33,0,0,0,28.88-61.74Zm-43,54.28a67.09,67.09,0,0,1-105.27,77.59A67.1,67.1,0,0,1,98.61,191.61a67.08,67.08,0,0,1,35.55-124c1.39,0,2.75,0,4.11.14a67.09,67.09,0,0,1,130,0c1.36-.11,2.74-.14,4.11-.14a67.08,67.08,0,0,1,37.16,122.93Z" transform="translate(-53.26 -2.68)"/><path class="cls-3" d="M330.5,136.44A61.43,61.43,0,0,0,269.05,75c-1.93,0-3.89.11-5.8.27a61.44,61.44,0,0,0-119.89,0c-1.9-.16-3.83-.27-5.77-.27a61.43,61.43,0,0,0-30.76,114.61,61.44,61.44,0,0,0,97.46,70.1,61.45,61.45,0,0,0,97-71,61.3,61.3,0,0,0,29.16-52.25Zm-39.59,48.38a53.95,53.95,0,0,1-86.84,63.76,54,54,0,0,1-87.36-63A54,54,0,0,1,150.2,83.39,53.94,53.94,0,0,1,257.45,83a53.94,53.94,0,0,1,33.46,101.79Z" transform="translate(-53.26 -2.68)"/><polygon class="cls-1" points="146.29 95.64 155.66 95.64 151.2 81.38 146.29 95.64"/><polygon class="cls-1" points="136.63 100.63 144.74 95.95 133.73 85.79 136.63 100.63"/><polygon class="cls-1" points="130.75 109.77 135.44 101.64 120.85 98.37 130.75 109.77"/><polygon class="cls-1" points="130.24 120.61 130.24 111.25 115.97 115.71 130.24 120.61"/><polygon class="cls-1" points="135.22 130.27 130.53 122.16 120.41 133.16 135.22 130.27"/><polygon class="cls-1" points="144.35 136.15 136.25 131.47 132.96 146.07 144.35 136.15"/><polygon class="cls-1" points="155.2 136.68 145.83 136.68 150.3 150.94 155.2 136.68"/><polygon class="cls-1" points="164.88 131.69 156.75 136.37 167.77 146.5 164.88 131.69"/><polygon class="cls-1" points="170.73 122.55 166.06 130.66 180.67 133.92 170.73 122.55"/><polygon class="cls-1" points="171.25 111.71 171.25 121.07 185.54 116.61 171.25 111.71"/><polygon class="cls-1" points="166.3 102.05 170.98 110.16 181.11 99.15 166.3 102.05"/><polygon class="cls-1" points="157.15 96.17 165.26 100.84 168.53 86.25 157.15 96.17"/><path class="cls-4" d="M177.34,192.78a23.74,23.74,0,1,0-23.74,23.74c.71,0,1.39,0,2.07-.08,0-.63-.08-1.26-.08-1.88s0-1.42.08-2.1a17.59,17.59,0,0,1-2.07.11,19.82,19.82,0,1,1,6.16-1,20.79,20.79,0,0,0-.22,3c0,.4,0,.81,0,1.19a23.72,23.72,0,0,0,17.77-23Z" transform="translate(-53.26 -2.68)"/><path class="cls-5" d="M280.24,192.78a23.75,23.75,0,0,1-47.4,2.09,18.52,18.52,0,0,1,4.08.87,19.91,19.91,0,1,0-.16-4.19,24.5,24.5,0,0,0-3.92-.66,23.74,23.74,0,0,1,47.4,1.89Z" transform="translate(-53.26 -2.68)"/><path class="cls-6" d="M250.54,215.75a19.79,19.79,0,1,1-25.92-20,20.73,20.73,0,0,0,.22-3c0-.41,0-.82,0-1.23a23.76,23.76,0,1,0,29.65,24.89,20.72,20.72,0,0,1-3.92-.69Zm-19.77-21a19.78,19.78,0,0,1,19.58,16.82,17.75,17.75,0,0,0,4.08.88,23.74,23.74,0,0,0-23.66-21.64c-.68,0-1.36,0-2,.07.05.63.05,1.26.05,1.89s0,1.41-.08,2.09a17.94,17.94,0,0,1,2.07-.11Z" transform="translate(-53.26 -2.68)"/><path class="cls-7" d="M203,216.44a23.74,23.74,0,1,1-29.64-24.89q0,.62,0,1.23a20.73,20.73,0,0,1-.22,3,19.8,19.8,0,1,0,25.91,20,23.94,23.94,0,0,0,3.92.66Zm-25.74-21.57c.05-.68.08-1.39.08-2.09s0-1.26-.06-1.89c.68,0,1.36-.07,2.05-.07A23.74,23.74,0,0,1,203,212.46a18.06,18.06,0,0,1-4.09-.88,19.79,19.79,0,0,0-19.57-16.82,17.83,17.83,0,0,0-2.07.11Z" transform="translate(-53.26 -2.68)"/><path class="cls-8" d="M205.06,212.57a19.79,19.79,0,0,1-19.58-16.83,18.28,18.28,0,0,0-4.08-.87,23.74,23.74,0,0,0,23.66,21.65c.68,0,1.37,0,2.06-.08a17,17,0,0,1-.09-1.88c0-.71,0-1.42.09-2.1a17.54,17.54,0,0,1-2.06.11Zm0-43.53a23.72,23.72,0,0,0-23.66,21.85,25.33,25.33,0,0,1,3.91.66,19.78,19.78,0,1,1,25.91,20,19.31,19.31,0,0,0-.23,3c0,.41,0,.81,0,1.19a23.73,23.73,0,0,0-6-46.71Z" transform="translate(-53.26 -2.68)"/></svg>
